<?xml version="1.0" standalone="no"?>
<!DOCTYPE svg PUBLIC "-//W3C//DTD SVG 20010904//EN"
 "http://www.w3.org/TR/2001/REC-SVG-20010904/DTD/svg10.dtd">
<svg version="1.0" xmlns="http://www.w3.org/2000/svg"
 width="420.000000pt" height="420.000000pt" viewBox="0 0 420.000000 420.000000"
 preserveAspectRatio="xMidYMid meet">
<metadata>
Created by potrace 1.10, written by Peter Selinger 2001-2011
</metadata>
<g transform="translate(0.000000,420.000000) scale(0.100000,-0.100000)"
fill="#000000" stroke="none">
<path d="M1960 4150 c-30 -4 -95 -13 -145 -19 -49 -5 -109 -15 -132 -20 -24
-6 -62 -16 -85 -22 -24 -5 -63 -14 -88 -20 -24 -5 -49 -14 -54 -19 -6 -6 -19
-10 -31 -10 -12 0 -30 -7 -41 -15 -10 -8 -25 -15 -32 -15 -20 0 -208 -87 -287
-133 -184 -106 -393 -280 -527 -438 -88 -104 -188 -242 -188 -258 0 -5 -4 -11
-8 -13 -10 -3 -16 -14 -91 -165 -29 -59 -60 -120 -67 -135 -8 -14 -14 -33 -14
-41 0 -9 -6 -28 -14 -44 -21 -42 -58 -171 -86 -303 -42 -188 -42 -649 -2 -781
6 -19 15 -59 22 -89 22 -113 30 -144 40 -154 6 -6 10 -19 10 -31 0 -12 7 -30
15 -41 8 -10 15 -25 15 -32 0 -8 7 -30 16 -50 8 -21 22 -53 31 -72 8 -19 22
-48 30 -65 9 -16 25 -48 36 -70 11 -22 31 -54 44 -72 12 -17 23 -36 23 -40 0
-5 7 -18 15 -28 8 -11 50 -67 92 -125 87 -116 234 -269 333 -345 36 -27 69
-55 73 -62 4 -7 12 -13 18 -13 5 0 37 -20 71 -45 34 -25 68 -45 75 -45 7 0 13
-4 13 -8 0 -4 15 -15 33 -23 17 -9 66 -33 107 -54 76 -39 99 -50 180 -80 25
-10 59 -24 77 -31 17 -8 42 -14 55 -14 12 -1 34 -7 48 -15 14 -8 36 -14 49
-15 13 0 47 -6 75 -14 112 -31 260 -46 451 -46 105 1 210 5 235 11 25 6 77 14
116 19 40 4 80 12 90 18 11 5 39 12 64 16 24 4 49 11 55 15 5 5 24 11 40 14
30 5 97 27 145 48 14 6 39 17 55 24 70 29 190 89 193 97 2 4 9 8 15 8 11 0
225 140 249 163 7 7 53 45 101 86 49 41 118 109 154 150 36 42 75 87 87 101
13 14 34 43 48 66 15 22 33 47 40 55 8 8 33 46 57 84 58 97 57 95 81 145 11
25 25 52 29 60 12 20 35 75 56 130 10 25 24 59 31 77 8 17 14 42 14 55 1 12 7
34 15 48 8 14 14 38 15 53 0 16 5 38 12 50 6 12 15 48 19 82 4 33 12 80 18
105 13 56 13 498 0 565 -5 28 -13 77 -18 110 -5 33 -14 74 -19 90 -6 17 -15
50 -22 75 -21 85 -46 162 -76 230 -8 19 -19 44 -23 55 -17 42 -55 120 -60 125
-4 3 -12 16 -18 30 -24 48 -58 105 -85 141 -16 20 -28 41 -28 47 0 6 -6 15
-13 19 -6 4 -26 28 -42 53 -47 71 -298 321 -388 387 -101 73 -215 149 -248
163 -13 5 -42 21 -64 34 -60 36 -104 42 -122 17 -8 -12 -21 -21 -30 -21 -26 0
-164 -70 -223 -113 -70 -51 -159 -141 -196 -198 -16 -24 -32 -46 -35 -49 -11
-8 -79 -159 -79 -174 0 -7 -6 -29 -14 -47 -8 -20 -16 -78 -17 -137 -4 -111 0
-121 51 -122 14 0 57 -12 95 -26 39 -14 79 -28 90 -31 11 -4 29 -12 40 -20 11
-7 27 -13 37 -13 10 0 18 -4 18 -9 0 -5 10 -13 22 -17 19 -6 106 -55 133 -76
161 -121 264 -253 340 -433 6 -16 20 -47 29 -68 9 -21 16 -49 16 -63 0 -14 7
-50 15 -79 12 -41 15 -91 13 -222 -4 -163 -16 -254 -44 -320 -8 -17 -14 -39
-14 -50 0 -10 -7 -27 -15 -37 -8 -11 -15 -26 -15 -33 0 -17 -84 -156 -136
-223 -52 -68 -98 -116 -161 -166 -26 -21 -53 -43 -58 -50 -6 -6 -26 -20 -45
-31 -19 -10 -54 -31 -77 -46 -24 -15 -48 -27 -54 -27 -6 0 -23 -7 -37 -14
-104 -57 -292 -99 -442 -100 -116 0 -283 31 -377 71 -17 7 -37 13 -45 13 -7 0
-22 7 -32 15 -11 8 -25 15 -32 15 -23 0 -179 99 -234 150 -30 27 -58 50 -62
50 -11 0 -145 158 -184 217 -88 132 -164 320 -184 453 -4 30 -13 76 -20 101
-14 56 -8 324 9 424 28 151 86 336 146 455 50 101 78 153 86 160 3 3 16 23 29
45 13 22 28 45 32 50 5 6 25 33 45 60 86 116 241 271 361 360 26 19 52 38 57
43 6 4 28 19 50 32 22 13 42 26 45 29 10 12 167 92 235 121 89 38 122 50 205
79 50 18 137 41 193 51 26 5 62 13 80 19 49 15 216 35 345 40 52 2 6 30 -103
61 -16 4 -43 13 -60 18 -105 35 -110 37 -265 62 -36 6 -91 15 -122 21 -80 13
-302 19 -368 9z"/>
</g>
</svg>
